<?xml version="1.0" encoding="utf-8"?>
<svg viewBox="0 0 500 500" xmlns="http://www.w3.org/2000/svg">
  <path d="M 278.596 161.948 C 278.596 227.934 221.301 281.427 150.623 281.427 C 79.945 281.427 22.65 227.934 22.65 161.948 C 22.65 95.962 79.945 42.469 150.623 42.469 C 221.301 42.469 278.596 95.962 278.596 161.948 Z" style="stroke: rgb(0, 0, 0); stroke-width: 7px; paint-order: stroke markers; fill: rgb(218, 218, 218);"/>
  <path d="M 208.55 269.26 L 411.665 470.555 L 466.025 421.857 L 264.456 219.139 C 269.121 222.249 215.079 273.613 208.55 269.26 Z" style="stroke: rgb(0, 0, 0); stroke-width: 7px; paint-order: stroke markers; fill: rgb(218, 218, 218);"/>
  <path d="M 211.965 91.248 C 250.261 123.71 253.715 181.299 219.681 219.875 C 191.295 252.049 145.799 260.837 109.261 244.037 C 101.989 240.693 95.072 236.335 88.715 230.947 C 50.419 198.485 46.964 140.897 80.999 102.32 C 95.448 85.943 114.33 75.625 134.208 71.658 C 161.153 66.279 189.927 72.568 211.965 91.248 Z" style="stroke: rgb(0, 0, 0); stroke-width: 7px; paint-order: stroke markers; fill: rgb(255, 255, 255);"/>
</svg>